<svg width="273" height="273" viewBox="0 0 273 273" fill="none" xmlns="http://www.w3.org/2000/svg">
<path d="M211.838 87.4019C210.02 85.6349 207.469 84.8319 204.972 85.2424C202.471 85.6514 200.311 87.2217 199.151 89.475C195.16 97.2273 190.092 104.351 184.128 110.649C184.723 106.1 185.022 101.523 185.022 96.9345C185.022 88.1297 183.842 79.069 181.514 70.0008C173.858 40.2156 153.783 15.0265 126.437 0.892911C124.057 -0.337189 121.22 -0.294 118.878 1.00808C116.535 2.3107 115.001 4.69891 114.791 7.37026C112.659 34.4378 98.7172 59.0632 76.5183 74.9484C76.2246 75.1601 75.9329 75.3745 75.6412 75.5877C75.0371 76.0298 74.4677 76.4478 73.9355 76.7986C73.8523 76.8541 73.7697 76.9106 73.6886 76.9687C59.7273 86.9647 48.2074 100.289 40.373 115.507C32.4123 130.985 28.376 147.595 28.376 164.873C28.376 173.675 29.556 182.736 31.8834 191.806C44.1657 239.611 87.1867 272.999 136.503 272.999C196.121 272.999 244.623 224.494 244.623 164.873C244.623 135.472 232.98 107.959 211.838 87.4019Z" fill="#B991FA" fill-opacity="0.21"/>
<circle cx="129.055" cy="161.318" r="32.2636" fill="#111111"/>
</svg>
