<svg width="16" height="11" viewBox="0 0 16 11" fill="none" xmlns="http://www.w3.org/2000/svg">
<path d="M7.99997 10.2146C7.81108 10.2146 7.62786 10.1792 7.4503 10.1083C7.27275 10.0375 7.12541 9.94306 7.0083 9.82501L0.491634 3.30834C0.231911 3.04862 0.102051 2.71806 0.102051 2.31667C0.102051 1.91529 0.231911 1.58473 0.491634 1.32501C0.751356 1.06529 1.08191 0.935425 1.4833 0.935425C1.88469 0.935425 2.21525 1.06529 2.47497 1.32501L7.99997 6.85001L13.525 1.32501C13.7847 1.06529 14.1152 0.935425 14.5166 0.935425C14.918 0.935425 15.2486 1.06529 15.5083 1.32501C15.768 1.58473 15.8979 1.91529 15.8979 2.31667C15.8979 2.71806 15.768 3.04862 15.5083 3.30834L8.99163 9.82501C8.84997 9.96667 8.6965 10.0673 8.53122 10.1268C8.36594 10.1863 8.18886 10.2155 7.99997 10.2146Z" fill="white"/>
</svg>
