<svg width="112" height="112" viewBox="0 0 112 112" fill="none" xmlns="http://www.w3.org/2000/svg">
<rect width="112" height="112" rx="56" fill="#06050C"/>
<path d="M30.2 73V62.74H36.38C46.7 62.74 54.2 58.54 54.2 47.74C54.2 37 46.58 32.8 36.38 32.8H19.4V73H30.2ZM36.5 42.4C40.7 42.4 42.8 44.2 42.8 47.74C42.8 51.22 40.7 53.14 36.5 53.14H30.2V42.4H36.5Z" fill="url(#paint0_linear_403_45)"/>
<path d="M76.3789 73.48C84.9589 73.48 91.1989 69.34 94.5589 63.1L85.5589 55.36C84.4789 59.26 81.3589 63.04 76.2589 63.04C70.6789 63.04 67.3789 58.9 67.3789 52.84C67.3789 46.78 70.6789 42.64 76.2589 42.64C81.3589 42.64 84.4789 46.42 85.5589 50.32L94.5589 42.58C91.1989 36.34 84.9589 32.2 76.3789 32.2C63.5389 32.2 55.6789 41.26 55.6789 52.84C55.6789 64.42 63.5389 73.48 76.3789 73.48Z" fill="white"/>
<defs>
<linearGradient id="paint0_linear_403_45" x1="69.2453" y1="35" x2="69.2453" y2="109.55" gradientUnits="userSpaceOnUse">
<stop stop-color="#CE9FFC"/>
<stop offset="0.505208" stop-color="#A582F7"/>
<stop offset="1" stop-color="#7367F0"/>
</linearGradient>
</defs>
</svg>
